<svg xmlns="http://www.w3.org/2000/svg" enable-background="new 0 0 24 24" viewBox="0 0 24 24"><path fill="#67686b" d="M19.5 22.493h-15l-3-12 3-4 4 4V6.966c0-.308.095-.608.271-.86L12 1.493l3.229 4.613c.176.252.271.552.271.86v3.527l4-4 3 4-3 12z"/><path fill="#fff" d="M10 11.993V6.966c0-.308.095-.608.271-.86l2.479-3.541L12 1.493 8.771 6.106a1.495 1.495 0 0 0-.271.86v3.527l1.5 1.5zM14 13.493l6.143-6.143-.643-.857-5.5 5.5zM5.357 7.35 4.5 6.493l-3 4 3 12H6l-3-12z" enable-background="new" opacity=".2"/><path d="M14 11.993V6.966c0-.308-.095-.608-.271-.86L11.25 2.565 12 1.493l3.229 4.613c.177.252.271.552.271.86v3.527l-1.5 1.5zM10 13.493 3.857 7.35l.643-.857 5.5 5.5zM18.643 7.35l.857-.857 3 4-3 12H18l3-12z" enable-background="new" opacity=".1"/><path fill="#f99f38" d="M13 9.493h-2v-2a1 1 0 0 1 2 0v2zM6.5 14.493H5l-.5-2a1 1 0 0 1 2 0v2zM19 14.493h-1.5v-2a1 1 0 0 1 2 0l-.5 2z"/><path fill="#9d581f" d="M15.5 22.493v-4.5a3.5 3.5 0 1 0-7 0v4.5h7z"/><path fill="#fff" d="M8.5 17.993v4.5H10v-4.5c0-1.933.895-3.5 2-3.5a3.5 3.5 0 0 0-3.5 3.5z" enable-background="new" opacity=".2"/><path d="M12 14.493c1.105 0 2 1.567 2 3.5v4.5h1.5v-4.5a3.5 3.5 0 0 0-3.5-3.5z" enable-background="new" opacity=".1"/><path fill="#303c42" d="m22.9 10.193-3-4a.499.499 0 0 0-.754-.054L16 9.286v-2.32c0-.413-.125-.809-.362-1.146l-3.229-4.613c-.186-.268-.633-.268-.818 0L8.362 5.819A1.986 1.986 0 0 0 8 6.966v2.32L4.854 6.14a.5.5 0 0 0-.754.054l-3 4a.502.502 0 0 0-.085.421l3 12a.5.5 0 0 0 .485.379h15a.5.5 0 0 0 .485-.379l3-12a.504.504 0 0 0-.085-.422zm-7.9 7.8v4h-2.5v-6.949a2.997 2.997 0 0 1 2.5 2.949zm-3.5 4H9v-4a2.997 2.997 0 0 1 2.5-2.949v6.949zm7.609 0H16v-4c0-2.206-1.794-4-4-4s-4 1.794-4 4v4H4.891L2.043 10.602l2.511-3.348 3.593 3.592a.5.5 0 0 0 .854-.354V6.965c0-.206.063-.404.181-.573l2.819-4.027 2.819 4.028a.994.994 0 0 1 .181.573v3.527a.5.5 0 0 0 .854.354l3.593-3.592 2.511 3.348-2.85 11.39z"/><path fill="#303c42" d="M12 5.993c-.827 0-1.5.673-1.5 1.5v2a.5.5 0 0 0 .5.5h2a.5.5 0 0 0 .5-.5v-2c0-.827-.673-1.5-1.5-1.5zm.5 3h-1v-1.5a.5.5 0 0 1 1 0v1.5zM5.5 10.993c-.827 0-1.5.673-1.5 1.5a.49.49 0 0 0 .015.121l.5 2a.5.5 0 0 0 .485.379h1.5a.5.5 0 0 0 .5-.5v-2c0-.827-.673-1.5-1.5-1.5zm.5 3h-.609l-.388-1.551a.5.5 0 0 1 .997.051v1.5zM17 12.493v2a.5.5 0 0 0 .5.5H19a.5.5 0 0 0 .485-.379l.5-2c.01-.04.015-.08.015-.121 0-.827-.673-1.5-1.5-1.5s-1.5.673-1.5 1.5zm1.997-.051-.388 1.551H18v-1.5a.5.5 0 0 1 .997-.051z"/><linearGradient id="a" x1="1.677" x2="21.964" y1="8.932" y2="18.393" gradientUnits="userSpaceOnUse"><stop offset="0" stop-color="#fff" stop-opacity=".2"/><stop offset="1" stop-color="#fff" stop-opacity="0"/></linearGradient><path fill="url(#a)" d="m22.9 10.193-3-4a.499.499 0 0 0-.754-.054L16 9.286v-2.32c0-.413-.125-.809-.362-1.146l-3.229-4.613c-.186-.268-.633-.268-.818 0L8.362 5.819A1.986 1.986 0 0 0 8 6.966v2.32L4.854 6.14a.5.5 0 0 0-.754.054l-3 4a.502.502 0 0 0-.085.421l3 12a.5.5 0 0 0 .485.379h15a.5.5 0 0 0 .485-.379l3-12a.504.504 0 0 0-.085-.422z"/></svg>